<svg id="Layer_1" data-name="Layer 1" xmlns="http://www.w3.org/2000/svg" viewBox="0 0 512 512"><defs><style>.cls-1{fill:#d9e4e8;}.cls-2{opacity:0.14;}.cls-3{fill:#17292d;}.cls-4{fill:#fff;}.cls-5{fill:#141f38;}</style></defs><title>speech-bubble-9-filled</title><path class="cls-1" d="M17.92,384.19a5,5,0,0,1-5.12-5V102.11A51.26,51.26,0,0,1,64,50.91H371.2a51.26,51.26,0,0,1,51.2,51.2v179.2a51.26,51.26,0,0,1-51.2,51.2H71.5L21.32,382.69A4.65,4.65,0,0,1,17.92,384.19Z"/><g class="cls-2"><path class="cls-3" d="M435.2,166.11h-192a89.7,89.7,0,0,0-89.6,89.6v89.6H371.2a64,64,0,0,0,64-64Z"/></g><path class="cls-4" d="M494.08,461.09a4.64,4.64,0,0,1-3.4-1.51l-50.17-50.27H243.2a51.26,51.26,0,0,1-51.2-51.2V255.71a51.26,51.26,0,0,1,51.2-51.2H448a51.26,51.26,0,0,1,51.2,51.2V456.06A5,5,0,0,1,494.08,461.09Z"/><path class="cls-5" d="M448,191.71H435.2v-89.6a64,64,0,0,0-64-64H64a64,64,0,0,0-64,64V379.16A17.78,17.78,0,0,0,17.92,397a17.42,17.42,0,0,0,12.45-5.25L76.8,345.31H179.2v12.8a64,64,0,0,0,64,64h192l46.42,46.51a17.42,17.42,0,0,0,12.46,5.26A17.78,17.78,0,0,0,512,456.06V255.71A64,64,0,0,0,448,191.71Zm-268.8,64v64H66.2l-7.5,7.5-33.1,33.1V102.11A38.44,38.44,0,0,1,64,63.71H371.2a38.44,38.44,0,0,1,38.4,38.4v89.6H243.2A64,64,0,0,0,179.2,255.71Zm307.2,51v130.5L453.32,404l-7.5-7.52H243.2a38.44,38.44,0,0,1-38.4-38.4V255.71a38.44,38.44,0,0,1,38.4-38.4H448a38.44,38.44,0,0,1,38.4,38.4Zm-89.6.24a12.8,12.8,0,1,1-12.8-12.8A12.8,12.8,0,0,1,396.8,306.91Zm-38.4,0a12.8,12.8,0,1,1-12.8-12.8A12.8,12.8,0,0,1,358.4,306.91Zm-38.4,0a12.8,12.8,0,1,1-12.8-12.8A12.8,12.8,0,0,1,320,306.91Z"/></svg>